<svg width="121" height="39" viewBox="0 0 121 39" fill="none" xmlns="http://www.w3.org/2000/svg">
<path d="M38.2845 12.3708H41.4937V16.7798H45.9552V12.3708H49.1643V24.4238H45.9552V19.7067H41.4937V24.4238H38.2845V12.3708Z" fill="white"/>
<path d="M59.1928 23.8095C59.0461 23.8933 58.8621 23.9869 58.6391 24.0883C58.385 24.2027 58.1235 24.2998 57.8563 24.3789C57.5225 24.4757 57.1834 24.5538 56.8408 24.6129C56.4453 24.6808 56.0445 24.7141 55.6432 24.7123C54.0778 24.7123 52.875 24.3178 52.0349 23.5287C51.1948 22.7396 50.778 21.6346 50.7845 20.2137C50.7845 19.6451 50.8764 19.0801 51.0565 18.5406C51.2311 18.0035 51.5111 17.5063 51.8803 17.0781C52.267 16.6371 52.7432 16.2828 53.2774 16.0387C53.8957 15.7645 54.5675 15.6313 55.244 15.6487C55.8052 15.6453 56.362 15.7465 56.8858 15.9471C57.3959 16.1431 57.8549 16.4518 58.2281 16.8499C58.629 17.2895 58.9347 17.8065 59.1263 18.369C59.3565 19.0603 59.4663 19.7858 59.4511 20.514V21.099H53.6786C53.6937 21.2552 53.734 21.408 53.798 21.5514C53.8755 21.7243 53.9936 21.8761 54.1423 21.994C54.335 22.148 54.5565 22.262 54.794 22.3294C55.1218 22.4209 55.4614 22.4637 55.8017 22.4562C56.283 22.4628 56.7626 22.3971 57.2243 22.2612C57.5749 22.1621 57.9125 22.0221 58.2301 21.8439L59.1928 23.8095ZM56.7253 19.2738C56.7237 19.1187 56.6932 18.9653 56.6353 18.8214C56.5717 18.6601 56.4766 18.5129 56.3555 18.3885C56.22 18.2491 56.0602 18.1354 55.8839 18.0531C55.6706 17.9578 55.4385 17.9118 55.2049 17.9185C54.9739 17.9135 54.7447 17.9594 54.5337 18.0531C54.3557 18.1325 54.1953 18.2465 54.0621 18.3885C53.9452 18.5146 53.8529 18.6614 53.7901 18.8214C53.7323 18.9653 53.7017 19.1187 53.7001 19.2738H56.7253Z" fill="white"/>
<path d="M60.3708 20.2311L65.2491 13.0376H68.2763V19.9952H69.419V22.4366H68.2763V24.4236H65.4663V22.4366H60.3787L60.3708 20.2311ZM65.4585 19.9952V16.5983L63.1456 19.9952H65.4585Z" fill="white"/>
<path d="M71.0315 15.9294H73.9882L74.0958 16.9961C74.3396 16.6574 74.6441 16.3665 74.994 16.1381C75.3823 15.897 75.8342 15.7774 76.2913 15.7949C76.5007 15.7925 76.7099 15.8049 76.9175 15.8319C77.0753 15.8519 77.2307 15.8879 77.3813 15.9392L76.9899 18.5424C76.6994 18.47 76.401 18.4334 76.1015 18.4332C74.7709 18.4332 74.1056 19.1619 74.1056 20.6192V24.4334H71.0315V15.9294Z" fill="white"/>
<path d="M79.1756 18.2793H77.9252V15.9393H79.1756V13.5623H82.2399V15.9296H84.3376V18.2696H82.2399V21.2687C82.2399 21.9681 82.5725 22.3178 83.2379 22.3178C83.4352 22.3165 83.63 22.2733 83.8092 22.191C83.9896 22.1101 84.1625 22.0136 84.3258 21.9024L85.5214 23.7803C85.1338 24.083 84.6997 24.3214 84.2358 24.4862C83.7701 24.6532 83.2789 24.739 82.7839 24.7397C82.1931 24.7565 81.6048 24.6578 81.0521 24.4491C80.6178 24.2802 80.2339 24.0037 79.9367 23.6457C79.6503 23.2821 79.4497 22.8589 79.3497 22.4075C79.2309 21.8921 79.1731 21.3646 79.1775 20.8358L79.1756 18.2793Z" fill="white"/>
<path d="M92.0532 23.7119C92.014 23.7606 91.9455 23.8347 91.8575 23.9361C91.7483 24.0499 91.6246 24.1489 91.4896 24.2306C91.32 24.3342 91.1395 24.4192 90.9515 24.4841C90.7192 24.56 90.4758 24.5963 90.2314 24.5913C89.8912 24.5972 89.5536 24.5307 89.2413 24.3963C88.9367 24.2597 88.6646 24.0603 88.4429 23.8113C88.208 23.546 88.029 23.2363 87.9165 22.9007C87.7841 22.5154 87.7179 22.1106 87.7208 21.7034C87.7097 21.2334 87.8047 20.7669 87.9987 20.3384C88.1675 19.9804 88.4086 19.6611 88.7071 19.4004C88.9791 19.1624 89.2957 18.9802 89.6385 18.8642C89.9433 18.7559 90.264 18.6986 90.5875 18.6945C90.9083 18.6816 91.2286 18.7306 91.5307 18.8388C91.7557 18.9363 91.9221 19.0085 92.0493 19.0553V16.3799H93.1431V23.8425C93.1431 24.0232 93.147 24.2143 93.1548 24.4158H92.0923L92.0532 23.7119ZM92.0532 20.0615C91.913 19.9618 91.7636 19.8756 91.607 19.8041C91.3129 19.6804 90.9945 19.6244 90.6756 19.6403C90.4243 19.6376 90.1751 19.6867 89.9438 19.7846C89.7223 19.8801 89.5226 20.0194 89.3567 20.1941C89.183 20.3823 89.0498 20.6039 88.9654 20.8454C88.8687 21.1244 88.8217 21.418 88.8264 21.7131C88.8248 21.9672 88.857 22.2203 88.9223 22.4658C88.9808 22.6896 89.0818 22.9 89.2197 23.0859C89.3519 23.2638 89.526 23.4064 89.7266 23.5013C89.9556 23.607 90.2061 23.6584 90.4584 23.6514C90.7095 23.6588 90.9586 23.6052 91.1844 23.4954C91.3734 23.4015 91.5401 23.2686 91.6736 23.1054C91.7974 22.9517 91.8916 22.7765 91.9514 22.5887C92.0084 22.4195 92.0387 22.2426 92.0414 22.0641L92.0532 20.0615Z" fill="white"/>
<path d="M99.7786 23.6046C99.6869 23.7019 99.5903 23.7943 99.489 23.8815C99.3351 24.0099 99.1663 24.1193 98.9861 24.2072C98.7544 24.3212 98.5118 24.412 98.2621 24.4782C97.9522 24.5577 97.633 24.5958 97.313 24.5913C96.9036 24.5963 96.4971 24.5228 96.1155 24.3749C95.7648 24.2383 95.4473 24.0289 95.184 23.7606C94.9211 23.4877 94.7173 23.1638 94.5853 22.809C94.44 22.4159 94.3684 21.9995 94.3739 21.5805C94.3678 21.1883 94.4341 20.7983 94.5696 20.43C94.7664 19.9027 95.1218 19.4488 95.5873 19.1305C96.0528 18.8121 96.6056 18.6449 97.1702 18.6516C97.6058 18.6381 98.0378 18.734 98.4264 18.9305C98.7634 19.1066 99.0552 19.3575 99.2796 19.6637C99.5056 19.9807 99.6714 20.3362 99.7688 20.7128C99.8738 21.1139 99.9264 21.5268 99.9253 21.9413H95.4913C95.4966 22.1789 95.5519 22.4127 95.6537 22.6277C95.7524 22.8327 95.89 23.0168 96.0587 23.1698C96.2313 23.3244 96.43 23.4472 96.6458 23.5325C96.8645 23.6209 97.0985 23.666 97.3346 23.6651C97.7398 23.6809 98.1428 23.5979 98.5086 23.4233C98.7558 23.3059 98.9809 23.1469 99.1739 22.9533L99.7786 23.6046ZM98.8002 21.134C98.7785 20.7236 98.617 20.3329 98.3423 20.0264C98.1943 19.87 98.0137 19.748 97.8132 19.6688C97.6127 19.5896 97.3972 19.5552 97.1819 19.5681C96.9431 19.5648 96.7061 19.6099 96.4853 19.7007C96.2896 19.7825 96.1116 19.901 95.9609 20.0498C95.8164 20.1933 95.7014 20.3635 95.6224 20.5509C95.5413 20.7358 95.4962 20.9343 95.4893 21.1359L98.8002 21.134Z" fill="white"/>
<path d="M100.213 18.8213H101.459L103.221 23.1951L104.96 18.8213H106.134L103.727 24.4236H102.639L100.213 18.8213Z" fill="white"/>
<path d="M107.142 23.0101C107.35 23.2157 107.596 23.3793 107.866 23.4917C108.176 23.6179 108.509 23.6796 108.844 23.6731C109.156 23.6833 109.465 23.6233 109.75 23.4976C109.86 23.4544 109.953 23.3786 110.018 23.2805C110.083 23.1825 110.116 23.067 110.112 22.9496C110.116 22.8342 110.089 22.7199 110.034 22.6181C109.969 22.5143 109.877 22.4295 109.768 22.3724C109.611 22.2886 109.445 22.2232 109.273 22.1774C109.067 22.117 108.811 22.0507 108.506 21.9824C108.286 21.9326 108.069 21.8675 107.858 21.7874C107.652 21.7111 107.458 21.6032 107.285 21.4676C107.116 21.337 106.976 21.173 106.874 20.986C106.763 20.7765 106.709 20.5421 106.715 20.3054C106.712 20.0527 106.78 19.8041 106.911 19.5878C107.038 19.3811 107.209 19.2048 107.412 19.0711C107.629 18.9273 107.869 18.8193 108.12 18.7513C108.386 18.6783 108.661 18.6416 108.936 18.6421C109.354 18.6353 109.769 18.7013 110.163 18.8371C110.493 18.9551 110.798 19.1329 111.063 19.3616L110.476 20.1085C110.288 19.9435 110.073 19.8117 109.84 19.7185C109.557 19.6097 109.255 19.5568 108.952 19.5625C108.665 19.5502 108.379 19.6078 108.118 19.7302C108.018 19.7825 107.934 19.8628 107.878 19.9615C107.822 20.0601 107.796 20.1728 107.803 20.2859C107.807 20.4079 107.849 20.5256 107.924 20.6221C107.999 20.7185 108.102 20.7886 108.22 20.8222C108.575 20.9613 108.941 21.0715 109.314 21.1517C109.566 21.2114 109.815 21.2863 110.058 21.376C110.275 21.4527 110.479 21.5626 110.662 21.7016C110.835 21.8309 110.975 21.9976 111.073 22.1891C111.18 22.4059 111.233 22.6456 111.226 22.8872C111.231 23.1475 111.163 23.4041 111.03 23.6282C110.899 23.8432 110.721 24.0264 110.51 24.1645C110.28 24.3144 110.027 24.4245 109.76 24.4901C109.472 24.5629 109.175 24.5989 108.878 24.5974C107.813 24.5974 107.015 24.3127 106.484 23.7433L107.142 23.0101Z" fill="white"/>
<path d="M26.6123 9.75002C25.8468 9.74819 25.0884 9.89751 24.3811 10.1894C23.6738 10.4812 23.0315 10.9098 22.4913 11.4504L15.6113 18.2969L14.2415 16.9319C14.0377 16.7584 13.8722 16.5448 13.7553 16.3045C13.6383 16.0642 13.5726 15.8024 13.562 15.5355C13.5515 15.2687 13.5966 15.0025 13.6942 14.7538C13.7919 14.5051 13.9402 14.2793 14.1297 14.0904C14.3192 13.9016 14.5458 13.7538 14.7954 13.6565C15.0449 13.5591 15.312 13.5143 15.5798 13.5248C15.8476 13.5352 16.1103 13.6008 16.3515 13.7173C16.5926 13.8338 16.8069 13.9988 16.981 14.2019L19.7205 11.4719C18.6222 10.4084 17.1481 9.81831 15.6167 9.82918C14.0854 9.84006 12.6198 10.451 11.5368 11.53C10.4538 12.609 9.84041 14.0693 9.82914 15.5953C9.81786 17.1214 10.4096 18.5905 11.4766 19.6853L15.5976 23.7939L29.0994 10.3389C28.3245 9.96104 27.4749 9.75987 26.6123 9.75002Z" fill="white"/>
<path d="M31.8644 13.0649L26.6124 18.2968L25.2426 16.9318L22.5031 19.6618L23.8729 21.0268L18.3606 26.5199L21.1001 29.2499L30.7216 19.6657C31.5726 18.8176 32.1392 17.7278 32.3438 16.546C32.5484 15.3641 32.381 14.1481 31.8644 13.0649Z" fill="white"/>
</svg>
