<svg width="790" height="687" viewBox="0 0 790 687" fill="none" xmlns="http://www.w3.org/2000/svg">
<g opacity="0.35">
<path d="M442.105 60.78L203.356 299.482L156.181 252.307L156.174 252.301L156.168 252.295C149.789 246.141 144.7 238.778 141.199 230.635C137.697 222.493 135.852 213.735 135.773 204.872C135.693 196.009 137.38 187.219 140.736 179.015C144.091 170.811 149.047 163.358 155.314 157.091C161.581 150.823 169.034 145.867 177.238 142.512C185.442 139.157 194.232 137.47 203.095 137.549C211.958 137.629 220.716 139.473 228.859 142.975C237.001 146.477 244.364 151.566 250.518 157.944L251.225 158.677L251.945 157.957L347.756 62.1933L348.472 61.4773L347.747 60.7701C309.3 23.268 257.624 2.42508 203.917 2.7571C150.209 3.08913 98.7954 24.5694 60.8145 62.544C22.8337 100.519 1.34499 151.929 1.00412 205.636C0.663242 259.344 21.4977 311.023 58.9934 349.477L59.0023 349.486L202.649 493.132L203.356 493.839L204.063 493.132L674.737 22.4571L675.737 21.4573L674.461 20.8477C646.986 7.7197 616.91 0.936701 586.46 1.00045C559.645 0.953736 533.086 6.21136 508.312 16.4707C483.537 26.7302 461.036 41.789 442.105 60.78Z" stroke="url(#paint0_linear_2_6571)" stroke-width="2"/>
<path d="M770.692 117.13L770.083 115.853L769.083 116.854L586.455 299.529L539.28 252.307L538.573 251.599L537.866 252.307L442.102 348.071L441.394 348.778L442.102 349.485L489.277 396.66L298.455 587.481L297.748 588.188L298.455 588.895L394.219 684.707L394.926 685.414L395.634 684.707L730.808 349.532L730.101 348.825L730.808 349.532C760.662 319.668 780.526 281.286 787.669 239.667C794.811 198.049 788.88 155.239 770.692 117.13Z" stroke="url(#paint1_linear_2_6571)" stroke-width="2"/>
</g>
<defs>
<linearGradient id="paint0_linear_2_6571" x1="-7.49997" y1="-19" x2="790" y2="704" gradientUnits="userSpaceOnUse">
<stop stop-color="#782BF1"/>
<stop offset="0.901042" stop-color="#0D0D0D" stop-opacity="0.8"/>
</linearGradient>
<linearGradient id="paint1_linear_2_6571" x1="-7.50013" y1="-19.5001" x2="790" y2="704" gradientUnits="userSpaceOnUse">
<stop stop-color="#782BF1"/>
<stop offset="0.911458" stop-color="#0D0D0D" stop-opacity="0.8"/>
</linearGradient>
</defs>
</svg>
